<?xml version="1.0" encoding="UTF-8"?>
<!DOCTYPE svg PUBLIC "-//W3C//DTD SVG 1.1//EN" "http://www.w3.org/Graphics/SVG/1.1/DTD/svg11.dtd">
<svg version="1.1" xmlns="http://www.w3.org/2000/svg" xmlns:xlink="http://www.w3.org/1999/xlink" x="0px" y="0px" width="290.238" height="73.646" viewBox="0, 0, 290.238, 73.646">
  <g id="Background">
    <rect x="0" y="0" width="290.238" height="73.646" fill="#000000" fill-opacity="0"/>
  </g>
  <g id="Layer 1">
    <g>
      <path d="M81.481,33.003 C81.468,32.968 81.456,32.934 81.448,32.903 C81.261,32.442 81.069,31.976 80.866,31.506 C80.474,31.014 80.03,30.63 79.554,30.336 C79.345,30.202 79.126,30.082 78.906,29.99 C78.763,29.921 78.625,29.863 78.485,29.814 C77.589,29.487 76.66,29.382 75.845,29.382 C73.728,29.382 71.315,30.102 69.216,31.338 C62.326,35.442 55.686,45.025 52.588,49.936 L52.784,49.784 L51.46,51.876 C56.89,51.707 69.197,51.285 75.822,46.773 C83.503,40.976 82.155,34.893 81.481,33.003 z" fill="#0071CE"/>
      <path d="M12.789,42.204 C20.314,37.73 28.048,26.107 30.656,21.692 C23.703,21.852 12.457,22.782 6.212,26.877 C1.983,29.56 -1.307,35.683 0.512,40.507 C0.537,40.558 0.555,40.589 0.572,40.63 C0.761,41.105 0.96,41.592 1.171,42.089 C2.528,43.772 4.536,44.168 6.131,44.168 C8.253,44.167 10.681,43.452 12.789,42.204 z" fill="#0071CE"/>
      <path d="M57.589,40.611 C51.92,38.693 45.772,36.877 40.531,35.011 C40.466,30.882 40.359,25.851 40.233,21.276 C40.226,21.058 40.226,20.844 40.215,20.63 C40.208,20.403 40.202,20.182 40.2,19.964 C40.084,16.026 39.959,12.539 39.839,10.447 C37.074,13.854 34.685,17.506 32.956,20.357 C32.818,20.582 32.684,20.8 32.557,21.017 C32.492,21.122 32.425,21.238 32.361,21.347 C32.357,21.358 32.29,21.467 32.174,21.67 C31.416,22.971 28.421,27.981 24.348,33.057 C24.462,33.246 31.069,44.259 36.281,52.916 C36.404,53.121 36.528,53.33 36.647,53.529 C36.776,53.739 36.901,53.945 37.023,54.149 C39.686,58.567 41.85,62.149 42.369,62.977 L24.451,57.321 L23.508,57.02 L22.603,56.732 L21.826,56.487 C22.579,49.637 23.822,35.293 24.342,33.069 C21.178,37.013 17.367,40.997 13.456,43.328 C11.152,44.694 8.48,45.48 6.13,45.48 C4.68,45.48 3.391,45.19 2.304,44.638 C2.19,44.58 2.074,44.52 1.97,44.457 C5.528,52.243 10.968,61.542 15.872,68.182 C16.34,68.82 16.803,69.43 17.264,70.018 C17.277,70.032 17.284,70.054 17.3,70.064 C19.194,72.368 22.091,73.647 25.44,73.647 C27.561,73.647 29.836,73.139 32.207,72.136 C39.536,68.598 46.158,57.917 48.986,53.356 C49.006,53.325 49.015,53.3 49.035,53.276 C49.193,53.017 49.343,52.777 49.476,52.57 C49.53,52.483 49.576,52.408 49.625,52.331 L49.629,52.335 C49.678,52.224 49.749,52.088 49.849,51.912 C50.09,51.475 50.506,50.791 51.199,49.684 C52.115,48.224 53.594,45.949 55.426,43.449 C56.079,42.549 56.807,41.594 57.589,40.611 z" fill="#0071CE"/>
      <path d="M45.666,19.983 C45.788,20.183 45.904,20.386 46.018,20.583 C50.401,28.121 55.807,37.409 57.619,40.578 C60.659,36.763 64.564,32.583 68.549,30.208 C70.838,28.847 73.502,28.075 75.845,28.075 C76.518,28.075 77.151,28.14 77.754,28.262 C77.758,28.262 77.763,28.262 77.767,28.266 C77.758,28.262 77.758,28.253 77.749,28.246 C72.481,25.022 65.277,20.752 61.453,18.279 C61.584,17.312 61.718,16.33 61.843,15.362 C61.881,15.057 61.919,14.756 61.966,14.453 C62.001,14.134 62.044,13.816 62.086,13.501 C62.525,10.15 62.928,6.941 63.222,4.398 C64.033,5.457 64.847,6.579 65.667,7.736 C65.843,7.988 66.017,8.237 66.195,8.489 C66.356,8.716 66.512,8.953 66.676,9.191 C66.75,9.3 66.823,9.411 66.904,9.528 C70.607,14.974 77.91,28.297 77.91,28.297 L78.715,28.513 C79.072,28.633 79.408,28.776 79.727,28.934 C79.738,28.947 79.756,28.947 79.763,28.958 C78.35,25.889 76.628,22.569 74.729,19.242 C72.34,15.03 69.68,10.803 67.026,7.02 C66.781,6.666 66.534,6.318 66.284,5.973 C65.711,5.178 65.145,4.406 64.577,3.658 C64.243,3.215 63.907,2.784 63.581,2.365 C63.545,2.316 63.503,2.282 63.463,2.242 L63.463,2.228 C61.679,0.802 59.165,-0 56.335,-0 C54.038,-0 51.685,0.537 49.886,1.473 C46.406,3.233 42.992,6.589 40,10.25 C40.631,11.331 42.736,14.952 45.308,19.375 C45.432,19.574 45.55,19.781 45.666,19.983 z" fill="#0071CE"/>
    </g>
  </g>
  <g id="Layer 2">
    <g>
      <path d="M95.411,19.338 L114.927,19.338 Q114.927,19.536 114.951,19.735 Q114.976,19.933 114.976,20.131 Q114.976,21.419 114.679,22.756 Q114.382,24.093 113.837,25.48 L101.553,25.48 L100.216,33.207 L109.973,33.207 Q109.973,36.179 108.884,39.399 L99.126,39.399 L97.442,48.81 L110.072,48.81 Q110.072,49.008 110.097,49.181 Q110.122,49.355 110.122,49.553 Q110.122,50.89 109.8,52.203 Q109.478,53.515 109.032,54.952 L89.17,54.952 z" fill="#E6E7E8"/>
      <path d="M112.86,29.344 Q114.693,29.047 116.525,29.047 Q118.507,29.047 120.389,29.344 L122.32,48.116 L127.918,36.03 Q129.007,33.703 129.28,32.291 Q129.552,30.879 129.552,29.889 L129.552,29.344 Q130.394,29.195 131.41,29.121 Q132.425,29.047 133.515,29.047 Q135.744,29.047 137.477,29.344 L137.477,29.591 Q137.477,30.78 136.883,32.39 Q136.288,34 134.852,36.625 L124.847,54.952 Q123.856,55.1 122.816,55.15 Q121.776,55.199 121.082,55.199 Q120.389,55.199 119.225,55.175 Q118.061,55.15 117.219,54.952 z" fill="#E6E7E8"/>
      <path d="M143.583,45.243 Q143.881,47.621 145.168,48.785 Q146.456,49.949 148.933,49.949 Q150.914,49.949 152.425,49.528 Q153.936,49.107 155.62,48.413 Q156.412,49.404 156.685,50.816 Q156.957,52.227 156.957,53.812 Q156.115,54.209 155,54.531 Q153.886,54.853 152.697,55.075 Q151.508,55.298 150.32,55.422 Q149.131,55.546 148.19,55.546 Q145.168,55.546 143.014,54.803 Q140.859,54.06 139.447,52.698 Q138.036,51.336 137.367,49.379 Q136.698,47.423 136.698,45.045 Q136.698,42.024 137.739,39.101 Q138.779,36.179 140.686,33.876 Q142.593,31.573 145.342,30.161 Q148.091,28.749 151.508,28.749 Q153.143,28.749 154.555,29.146 Q155.966,29.542 157.006,30.359 Q158.047,31.176 158.641,32.365 Q159.235,33.554 159.235,35.139 Q159.235,37.368 158.195,39.002 Q157.155,40.637 155.421,41.776 Q153.688,42.915 151.484,43.634 Q149.28,44.352 146.902,44.699 z M146.407,40.191 Q148.289,39.894 149.478,39.423 Q150.666,38.953 151.36,38.383 Q152.053,37.814 152.301,37.219 Q152.549,36.625 152.549,36.03 Q152.549,35.089 151.929,34.495 Q151.31,33.901 150.27,33.901 Q148.982,33.901 147.917,34.47 Q146.852,35.04 146.06,35.981 Q145.267,36.922 144.698,38.136 Q144.128,39.349 143.831,40.587 z" fill="#E6E7E8"/>
      <path d="M162.667,40.34 Q163.212,37.219 163.484,34.817 Q163.757,32.415 163.757,31.077 Q163.757,30.532 163.757,30.161 Q163.757,29.789 163.707,29.344 Q165.342,29.047 166.976,29.047 Q167.719,29.047 168.462,29.121 Q169.205,29.195 170.047,29.344 Q170.146,29.74 170.245,30.285 Q170.344,30.83 170.344,31.919 Q170.344,32.365 170.32,32.811 Q170.295,33.257 170.196,33.901 Q170.79,32.86 171.682,31.919 Q172.573,30.978 173.712,30.285 Q174.852,29.591 176.164,29.195 Q177.477,28.799 178.814,28.799 Q181.786,28.799 183.445,30.31 Q185.105,31.82 185.105,35.337 Q185.105,36.08 185.006,36.922 Q184.907,37.764 184.758,38.705 L181.885,54.952 Q180.003,55.249 178.269,55.249 Q176.536,55.249 174.852,54.952 L177.625,39.25 Q177.824,38.259 177.824,37.368 Q177.824,35.882 177.18,35.288 Q176.536,34.693 175.347,34.693 Q174.654,34.693 173.787,35.04 Q172.92,35.387 172.028,36.501 Q171.137,37.616 170.295,39.646 Q169.453,41.677 168.858,44.996 L167.026,54.952 Q165.094,55.249 163.41,55.249 Q161.676,55.249 159.992,54.952 z" fill="#E6E7E8"/>
      <path d="M191.359,34.693 L187.546,34.693 Q187.546,33.356 187.744,32.068 Q187.942,30.78 188.487,29.344 L192.301,29.344 L192.598,27.858 Q192.845,26.619 192.895,25.505 Q192.945,24.391 192.945,23.648 Q194.232,22.806 196.164,22.459 Q198.096,22.112 199.73,22.112 Q199.978,22.855 199.978,23.994 Q199.978,24.787 199.854,25.703 Q199.73,26.619 199.532,27.709 L199.235,29.344 L205.377,29.344 Q205.377,30.83 205.129,32.068 Q204.882,33.306 204.436,34.693 L198.294,34.693 L196.56,44.451 Q196.461,45.144 196.387,45.739 Q196.313,46.333 196.313,46.878 Q196.313,48.166 196.907,48.909 Q197.501,49.652 199.136,49.652 Q199.978,49.652 200.622,49.528 Q201.266,49.404 201.811,49.255 Q202.455,50.692 202.455,53.02 Q202.455,53.416 202.455,53.812 Q202.455,54.209 202.405,54.605 Q200.275,55.249 197.303,55.249 Q193.143,55.249 191.137,53.713 Q189.131,52.178 189.131,48.562 Q189.131,47.819 189.23,47.027 Q189.329,46.234 189.477,45.293 z" fill="#E6E7E8"/>
      <path d="M215.743,37.021 L228.027,19.338 Q229.265,19.091 230.206,19.066 Q231.147,19.041 231.89,19.041 Q232.732,19.041 233.871,19.115 Q235.011,19.19 236.001,19.338 L223.321,37.021 L230.107,54.952 Q228.968,55.15 227.977,55.199 Q226.987,55.249 226.293,55.249 Q225.501,55.249 224.56,55.199 Q223.618,55.15 222.479,54.952 z M210.988,19.338 Q211.978,19.14 212.87,19.091 Q213.762,19.041 214.703,19.041 Q215.545,19.041 216.387,19.091 Q217.229,19.14 218.219,19.338 L211.929,54.952 Q209.997,55.249 208.264,55.249 Q207.372,55.249 206.53,55.175 Q205.688,55.1 204.697,54.952 z" fill="#E6E7E8"/>
      <path d="M237.204,34.693 L234.083,34.693 Q234.083,34.545 234.059,34.396 Q234.034,34.247 234.034,34.049 Q234.034,32.761 234.281,31.647 Q234.529,30.532 235.024,29.344 L245.03,29.344 L240.522,54.952 Q238.64,55.249 236.956,55.249 Q235.421,55.249 233.638,54.952 z" fill="#E6E7E8"/>
      <path d="M238.64,25.034 Q239.433,25.183 240.423,25.233 Q241.414,25.282 242.157,25.282 Q242.95,25.282 243.915,25.233 Q244.881,25.183 245.773,25.034 Q246.367,23.35 246.664,21.765 Q246.962,20.18 246.962,18.447 Q246.12,18.249 245.154,18.174 Q244.188,18.1 243.395,18.1 Q242.603,18.1 241.612,18.174 Q240.622,18.249 239.73,18.447 Q239.136,20.18 238.863,21.741 Q238.591,23.301 238.64,25.034 z" fill="#146FD5"/>
      <path d="M250.294,34.693 L246.48,34.693 Q246.48,33.356 246.678,32.068 Q246.876,30.78 247.421,29.344 L251.235,29.344 L251.532,27.858 Q251.78,26.619 251.829,25.505 Q251.879,24.391 251.879,23.648 Q253.167,22.806 255.099,22.459 Q257.03,22.112 258.665,22.112 Q258.913,22.855 258.913,23.994 Q258.913,24.787 258.789,25.703 Q258.665,26.619 258.467,27.709 L258.17,29.344 L264.311,29.344 Q264.311,30.83 264.064,32.068 Q263.816,33.306 263.37,34.693 L257.228,34.693 L255.495,44.451 Q255.396,45.144 255.321,45.739 Q255.247,46.333 255.247,46.878 Q255.247,48.166 255.842,48.909 Q256.436,49.652 258.07,49.652 Q258.913,49.652 259.556,49.528 Q260.2,49.404 260.745,49.255 Q261.389,50.692 261.389,53.02 Q261.389,53.416 261.389,53.812 Q261.389,54.209 261.34,54.605 Q259.21,55.249 256.238,55.249 Q252.077,55.249 250.071,53.713 Q248.065,52.178 248.065,48.562 Q248.065,47.819 248.164,47.027 Q248.263,46.234 248.412,45.293 z" fill="#E6E7E8"/>
    </g>
  </g>
  <defs/>
</svg>
